# xmcd
#
# Track frame offsets:
# 183
# 11878
# 26405
# 38685
# 49753
# 60963
# 72340
# 84365
# 95858
# 108015
# 122125
# 133625
# 147290
# 159848
#
# Disc length: 2289 seconds
#
#
# Revision: 0
# Processed by: cddbd v1.5.1PL0 Copyright (c) Steve Scherf et al.
# Submitted via: FreeRIP 2.35 
#
DISCID=b108ef0e
DTITLE=Jimmy Preston - Rock The Joint, Volume 2
DYEAR=1949
DGENRE=Blues
TTITLE0=Rock The Joint
TTITLE1=Drinking Woman
TTITLE2=Hucklebuck Daddy
TTITLE3=Sugar Baby
TTITLE4=They Call Me The Champ
TTITLE5=Let Me Call You Sweetheart
TTITLE6=Messin' With Preston
TTITLE7=Numbers Blues
TTITLE8=Chop Suey Louie
TTITLE9=Home Cookin'
TTITLE10=Hold Me Baby
TTITLE11=Do The Bump
TTITLE12=They Call Me The Champ
TTITLE13=Let's Hang Out Tonight
EXTD=Collectibles Records Corp. COL-5327
EXTT0=
EXTT1=
EXTT2=
EXTT3=
EXTT4=
EXTT5=
EXTT6=
EXTT7=
EXTT8=
EXTT9=
EXTT10=
EXTT11=
EXTT12=
EXTT13=
PLAYORDER=
